<svg xmlns="http://www.w3.org/2000/svg" version="1.1" xmlns:xlink="http://www.w3.org/1999/xlink" xmlns:svgjs="http://svgjs.com/svgjs" width="512" height="512" x="0" y="0" viewBox="0 0 512 512" style="enable-background:new 0 0 512 512" xml:space="preserve" class=""><g><path d="M256 512A256 256 0 0 1 74.98 74.98a256 256 0 0 1 362.04 362.039A254.328 254.328 0 0 1 256 512zm0-486.951C128.654 25.049 25.049 128.653 25.049 256S128.654 486.951 256 486.951 486.951 383.347 486.951 256 383.346 25.049 256 25.049z" fill="#BFA464" data-original="#BFA464" class=""></path><path d="M396.389 256a16.99 16.99 0 0 0-5.008-12.091l-56.53-56.53a12.525 12.525 0 0 0-17.713 17.712l38.385 38.384H128.135a12.525 12.525 0 0 0 0 25.05h227.388l-38.385 38.384a12.525 12.525 0 0 0 17.713 17.712l56.529-56.53A16.984 16.984 0 0 0 396.389 256z" fill="#BFA464" data-original="#BFA464" class=""></path></g></svg>