<svg preserveAspectRatio="xMidYMid meet" data-bbox="37.5 20 125.001 160" viewBox="37.5 20 125.001 160" height="200" width="200" xmlns="http://www.w3.org/2000/svg" data-type="color" role="presentation" aria-hidden="true" aria-labelledby="svgcid-52cyts3sj68z"><defs><style>#comp-kyvd20sv svg [data-color="1"] {fill: #15394E;}</style></defs><title id="svgcid-52cyts3sj68z"></title>
    <g>
        <path d="M98.48 162.396a1.815 1.815 0 0 1-1.822-1.808v-12.614c0-.999.816-1.808 1.822-1.808s1.822.809 1.822 1.808v12.614c0 .998-.816 1.808-1.822 1.808z" fill="#000000" data-color="1"></path>
        <path d="M121.709 162.396a1.815 1.815 0 0 1-1.822-1.808v-15.609c0-.999.816-1.808 1.822-1.808s1.822.809 1.822 1.808v15.609c0 .998-.815 1.808-1.822 1.808z" fill="#000000" data-color="1"></path>
        <path d="M96.511 98.411a5.007 5.007 0 0 1-3.549-1.458l-8.023-7.959a4.96 4.96 0 0 1 0-7.042l6.164-6.114 15.119 15.001-6.162 6.114a5.007 5.007 0 0 1-3.549 1.458zm-8.993-11.974 8.021 7.959a1.387 1.387 0 0 0 1.945 0l3.586-3.558-9.966-9.888-3.587 3.558a1.359 1.359 0 0 0 .001 1.929z" fill="#000000" data-color="1"></path>
        <path d="M84.371 126.78c-.466 0-.932-.177-1.288-.53L55.411 98.796a1.796 1.796 0 0 1 0-2.556 1.832 1.832 0 0 1 2.577 0l27.671 27.455c.712.706.712 1.85 0 2.556a1.823 1.823 0 0 1-1.288.529z" fill="#000000" data-color="1"></path>
        <path d="M57.785 134.474a6.343 6.343 0 0 1-4.497-1.848l-4.302-4.267a6.28 6.28 0 0 1 0-8.923l14.902-14.785a1.832 1.832 0 0 1 2.577 0c.712.706.712 1.85 0 2.556l-14.902 14.785a2.666 2.666 0 0 0-.795 1.905c0 .72.282 1.396.795 1.905l4.302 4.267c1.026 1.018 2.814 1.018 3.839 0l14.903-14.785a1.832 1.832 0 0 1 2.577 0 1.796 1.796 0 0 1 0 2.556l-14.902 14.785a6.34 6.34 0 0 1-4.497 1.849z" fill="#000000" data-color="1"></path>
        <path d="M141.524 76.133a5.778 5.778 0 0 1-4.079-1.673l-4.668-4.633a1.796 1.796 0 0 1 0-2.556 1.832 1.832 0 0 1 2.577 0l4.668 4.632a2.14 2.14 0 0 0 3.004 0l3.741-3.712a2.098 2.098 0 0 0-.001-2.981l-4.668-4.632a1.796 1.796 0 0 1 0-2.556 1.832 1.832 0 0 1 2.577 0l4.668 4.632a5.698 5.698 0 0 1 0 8.093l-3.741 3.712a5.77 5.77 0 0 1-4.078 1.674z" fill="#000000" data-color="1"></path>
        <path d="M103.728 150.052c-14.014 0-27.188-5.414-37.096-15.246l-4.64-4.604a1.796 1.796 0 0 1 0-2.556 1.832 1.832 0 0 1 2.577 0l4.64 4.604c9.221 9.148 21.48 14.186 34.52 14.186 13.04-.001 25.3-5.039 34.521-14.187 19.061-18.912 22.37-44.154 7.695-58.715a1.796 1.796 0 0 1 0-2.556 1.832 1.832 0 0 1 2.577 0c16.144 16.018 12.836 43.458-7.695 63.828-9.91 9.831-23.085 15.245-37.099 15.246z" fill="#000000" data-color="1"></path>
        <path d="M107.374 95.308a4.333 4.333 0 0 1-3.074-1.263L87.873 77.746a4.294 4.294 0 0 1-.001-6.099l46.216-45.853a4.376 4.376 0 0 1 6.147 0l16.428 16.299a4.293 4.293 0 0 1 0 6.099l-46.216 45.853a4.333 4.333 0 0 1-3.073 1.263zM90.449 75.189l16.428 16.299a.702.702 0 0 0 .993 0l46.217-45.853a.694.694 0 0 0 0-.986L137.659 28.35a.707.707 0 0 0-.994.001L90.449 74.203a.695.695 0 0 0 0 .986z" fill="#000000" data-color="1"></path>
        <path d="m153.162 43.731-14.579-14.465 4.993-7.948a4.566 4.566 0 0 1 6.419 0l11.178 11.09a4.483 4.483 0 0 1 0 6.369l-.332.261-7.679 4.693zm-9.966-15.002 10.507 10.425 4.994-3.052a.885.885 0 0 0-.1-1.137l-11.178-11.09a.903.903 0 0 0-1.146-.1l-3.077 4.954zm16.688 8.77h.014-.014z" fill="#000000" data-color="1"></path>
        <path d="M50.041 144.022c-.466 0-.932-.177-1.288-.53l-10.719-10.634c-.712-.705-.712-1.85 0-2.556s1.865-.706 2.577 0l10.719 10.634c.712.705.712 1.85 0 2.556-.357.354-.823.53-1.289.53z" fill="#000000" data-color="1"></path>
        <path d="M142.384 180H77.805l2.201-10.429c1.32-6.252 6.952-10.791 13.392-10.791h33.393c6.438 0 12.071 4.539 13.391 10.791L142.384 180zm-60.092-3.616h55.606l-1.283-6.072c-.969-4.587-5.1-7.917-9.824-7.917H93.398c-4.724 0-8.856 3.33-9.824 7.917l-1.282 6.072z" fill="#000000" data-color="1"></path>
        <path d="M137.738 55.625c-.466 0-.932-.177-1.288-.53l-9.321-9.248a1.796 1.796 0 0 1 0-2.556 1.832 1.832 0 0 1 2.577 0l9.321 9.248c.712.706.712 1.85 0 2.556-.357.354-.823.53-1.289.53z" fill="#000000" data-color="1"></path>
    </g>
</svg>