<svg preserveAspectRatio="xMidYMid meet" data-bbox="20 21.5 160 157" viewBox="20 21.5 160 157" height="200" width="200" xmlns="http://www.w3.org/2000/svg" data-type="color" role="presentation" aria-hidden="true" aria-labelledby="svgcid-tkmiyt5yiu80"><defs><style>#comp-kyvd20sk svg [data-color="1"] {fill: #15394E;}</style></defs><title id="svgcid-tkmiyt5yiu80"></title>
    <g>
        <path d="M90.53 120.766H44.723L21.82 80.853l22.903-39.912H80.56c.994 0 1.8.811 1.8 1.811 0 1-.806 1.811-1.8 1.811H46.801l-20.825 36.29 20.825 36.291h41.651l20.825-36.291-16.883-29.42a1.818 1.818 0 0 1 .66-2.474 1.793 1.793 0 0 1 2.459.663l17.921 31.231-22.904 39.913z" fill="#000000" data-color="1"></path>
        <path d="M83.49 110.309H51.762c-.994 0-1.8-.811-1.8-1.811 0-1 .806-1.811 1.8-1.811H83.49c.994 0 1.8.811 1.8 1.811a1.804 1.804 0 0 1-1.8 1.811z" fill="#000000" data-color="1"></path>
        <path d="M146.122 158.867h-35.826l-22.904-39.912 22.904-39.913h45.806l22.904 39.913-17.921 31.231a1.794 1.794 0 0 1-2.459.663 1.818 1.818 0 0 1-.66-2.474l16.883-29.42-20.826-36.291h-41.649l-20.826 36.291 20.826 36.29h33.748c.994 0 1.8.811 1.8 1.811 0 1-.806 1.811-1.8 1.811z" fill="#000000" data-color="1"></path>
        <path d="M149.062 93.12h-31.727c-.994 0-1.8-.811-1.8-1.811 0-1 .806-1.811 1.8-1.811h31.727c.994 0 1.8.811 1.8 1.811 0 1-.806 1.811-1.8 1.811z" fill="#000000" data-color="1"></path>
        <path d="M155.061 82.664c-.3 0-.602-.074-.88-.232a1.819 1.819 0 0 1-.688-2.466l11.724-20.992a1.794 1.794 0 0 1 2.451-.692 1.819 1.819 0 0 1 .688 2.466L156.632 81.74a1.799 1.799 0 0 1-1.571.924z" fill="#000000" data-color="1"></path>
        <path d="M170.424 62.581c-5.28 0-9.576-4.322-9.576-9.635s4.296-9.635 9.576-9.635S180 47.633 180 52.945c0 5.313-4.296 9.636-9.576 9.636zm0-15.649c-3.295 0-5.976 2.697-5.976 6.013s2.682 6.014 5.976 6.014 5.976-2.698 5.976-6.014c0-3.315-2.682-6.013-5.976-6.013z" fill="#000000" data-color="1"></path>
        <path d="M33.217 142.943c-.302 0-.607-.076-.889-.237a1.818 1.818 0 0 1-.674-2.47l12.543-22.178a1.792 1.792 0 0 1 2.454-.678c.863.494 1.166 1.6.674 2.47l-12.543 22.178c-.33.587-.939.915-1.565.915z" fill="#000000" data-color="1"></path>
        <path d="M29.576 157.682c-5.28 0-9.576-4.322-9.576-9.635s4.296-9.635 9.576-9.635 9.576 4.322 9.576 9.635c.001 5.313-4.295 9.635-9.576 9.635zm0-15.648c-3.295 0-5.976 2.698-5.976 6.014 0 3.316 2.682 6.013 5.976 6.013 3.295 0 5.976-2.697 5.976-6.013.001-3.316-2.681-6.014-5.976-6.014z" fill="#000000" data-color="1"></path>
        <path d="M108.815 44.563c-.994 0-1.8-.811-1.8-1.811 0-9.722-7.861-17.63-17.524-17.63-.994 0-1.8-.811-1.8-1.811 0-1 .806-1.811 1.8-1.811 11.648 0 21.124 9.534 21.124 21.252a1.805 1.805 0 0 1-1.8 1.811z" fill="#000000" data-color="1"></path>
        <path d="M89.491 53.549c-5.917 0-10.731-4.844-10.731-10.796s4.813-10.796 10.731-10.796c5.917 0 10.731 4.844 10.731 10.796s-4.814 10.796-10.731 10.796zm0-17.971c-3.932 0-7.131 3.219-7.131 7.174s3.199 7.174 7.131 7.174c3.932 0 7.131-3.219 7.131-7.174s-3.2-7.174-7.131-7.174z" fill="#000000" data-color="1"></path>
        <path d="M155.064 178.308c-.994 0-1.8-.811-1.8-1.811s.806-1.811 1.8-1.811c9.662 0 17.523-7.909 17.523-17.63 0-1 .806-1.811 1.8-1.811s1.8.811 1.8 1.811c-.001 11.718-9.476 21.252-21.123 21.252z" fill="#000000" data-color="1"></path>
        <path d="M155.062 167.852c-5.917 0-10.731-4.844-10.731-10.796 0-5.953 4.813-10.796 10.731-10.796s10.731 4.844 10.731 10.796c0 5.953-4.813 10.796-10.731 10.796zm0-17.97c-3.932 0-7.131 3.219-7.131 7.174 0 3.956 3.199 7.174 7.131 7.174s7.131-3.219 7.131-7.174c0-3.956-3.199-7.174-7.131-7.174z" fill="#000000" data-color="1"></path>
        <path d="M105.14 168.901c-.325 0-.652-.088-.948-.272a1.817 1.817 0 0 1-.579-2.494l6.193-10.034a1.794 1.794 0 0 1 2.478-.584 1.817 1.817 0 0 1 .579 2.494l-6.193 10.034c-.34.553-.928.856-1.53.856z" fill="#000000" data-color="1"></path>
        <path d="M102.411 178.5c-3.829 0-6.944-3.134-6.944-6.986s3.115-6.986 6.944-6.986 6.944 3.134 6.944 6.986-3.115 6.986-6.944 6.986zm0-10.351c-1.844 0-3.344 1.51-3.344 3.364 0 1.855 1.5 3.364 3.344 3.364 1.844 0 3.344-1.51 3.344-3.364 0-1.854-1.501-3.364-3.344-3.364z" fill="#000000" data-color="1"></path>
        <path d="M45.763 44.563a1.8 1.8 0 0 1-1.565-.913L38.43 33.483a1.816 1.816 0 0 1 .671-2.47 1.793 1.793 0 0 1 2.457.675l5.768 10.167a1.816 1.816 0 0 1-.671 2.47 1.787 1.787 0 0 1-.892.238z" fill="#000000" data-color="1"></path>
        <path d="M36.793 35.474a6.89 6.89 0 0 1-2.375-.424v-.001c-3.596-1.322-5.452-5.341-4.138-8.959 1.312-3.616 5.306-5.487 8.904-4.165 3.596 1.322 5.453 5.342 4.14 8.96a6.962 6.962 0 0 1-6.531 4.589zm-1.14-3.826a3.347 3.347 0 0 0 4.29-2.006c.631-1.742-.263-3.678-1.994-4.314a3.343 3.343 0 0 0-4.289 2.005c-.631 1.742.261 3.678 1.993 4.315z" fill="#000000" data-color="1"></path>
    </g>
</svg>