<svg xmlns="http://www.w3.org/2000/svg" version="1.1" xmlns:xlink="http://www.w3.org/1999/xlink" xmlns:svgjs="http://svgjs.com/svgjs" width="512" height="512" x="0" y="0" viewBox="0 0 512 511" style="enable-background:new 0 0 512 512" xml:space="preserve" class=""><g><path d="M506.648 115.785c-8.527-33.441-26.703-62.277-52.562-83.39C428.895 11.828 398.03.5 367.19.5c-23.644 0-46.203 6.367-67.043 18.922-16.457 9.918-31.257 23.406-44.191 40.242C226.547 21.332 187.719.5 144.773.5c-30.832 0-61.68 11.328-86.867 31.895-25.851 21.113-44.023 49.949-52.55 83.386-9.27 36.364-11.067 94.477 33.046 164.824 40.832 65.114 111.61 125.446 210.371 179.317 2.239 1.219 4.707 1.832 7.18 1.832s4.942-.61 7.18-1.832c98.789-53.875 169.59-114.207 210.437-179.317 44.133-70.347 42.348-128.457 33.078-164.82zM255.953 429.633C138.887 364.48 80.957 299.863 53.426 246.125h41.926c5.683 0 10.875-3.21 13.414-8.29l18.714-37.429 50.84 101.684a14.997 14.997 0 0 0 26.828 0l50.84-101.684 18.715 37.43a14.998 14.998 0 0 0 13.414 8.289H401.86c8.282 0 14.996-6.715 14.996-14.996s-6.714-14.996-14.996-14.996H297.387l-27.98-55.969a15 15 0 0 0-26.829 0l-50.844 101.684-50.84-101.684a14.998 14.998 0 0 0-26.828 0l-27.984 55.969H40.617c-14.863-43.457-10.304-76.828-6.195-92.938C48.34 68.617 93.715 30.496 144.773 30.496c38.618 0 73.547 22.563 98.352 63.524a14.987 14.987 0 0 0 12.824 7.23h.004a15 15 0 0 0 12.828-7.227c24.824-40.964 59.774-63.527 98.41-63.527 51.079 0 96.473 38.121 110.391 92.7 9.652 37.859 21.809 170.984-221.629 306.437zm0 0" fill="#ffffff" data-original="#ffffff" class=""></path></g></svg>