<svg xmlns="http://www.w3.org/2000/svg" version="1.1" xmlns:xlink="http://www.w3.org/1999/xlink" xmlns:svgjs="http://svgjs.com/svgjs" width="512" height="512" x="0" y="0" viewBox="0 0 128 128" style="enable-background:new 0 0 512 512" xml:space="preserve" class=""><g><path d="M87 50c0-12.7-10.3-23-23-23S41 37.3 41 50s10.3 23 23 23 23-10.3 23-23zm-40 0c0-9.4 7.6-17 17-17s17 7.6 17 17-7.6 17-17 17-17-7.6-17-17zM25.5 108.2c.5.3 1 .4 1.5.4 1 0 2.1-.5 2.6-1.5C36.6 94.7 49.8 87 64 87s27.4 7.7 34.5 20.1c.8 1.4 2.7 1.9 4.1 1.1s1.9-2.7 1.1-4.1C95.6 89.9 80.4 81 64 81s-31.6 8.9-39.7 23.1c-.8 1.4-.3 3.3 1.2 4.1z" fill="#000000" data-original="#000000" class=""></path></g></svg>